<svg xmlns="http://www.w3.org/2000/svg" viewBox="0 0 524.51 524.51"><defs><style>.cls-1{fill:#ed1c24;}.cls-2{fill:#fff;}.cls-3{fill:#061456;}</style></defs><title>cnp-logo-header</title><g id="Calque_2" data-name="Calque 2"><g id="Calque_1-2" data-name="Calque 1"><rect class="cls-1" width="524.51" height="524.51"/><path class="cls-2" d="M97.5,118H81.29s16.21,8.75,16.21,22.37V312.48c0,13.62-16.21,22.37-16.21,22.37h58.35V118H97.5Z"/><path class="cls-2" d="M427,312.48a10.74,10.74,0,0,0-.16-1.86V142.22a11,11,0,0,0,.16-1.87c0-13.62,16.21-22.37,16.21-22.37H384.71V310.62a10.74,10.74,0,0,0-.16,1.86c0,13.62-16.21,22.37-16.21,22.37h74.88S427,326.1,427,312.48Z"/><path class="cls-2" d="M169.56,220.74c5.74,1.35,34.47,9.22,42,32.83V187.68c-7.57,23.61-36.3,31.47-42,32.82h-1.07l.56.12-.56.12Z"/><path class="cls-2" d="M168.49,334.85h78.45V271.64S229.35,322.82,168.49,334.85Z"/><path class="cls-2" d="M362.34,197.73C356.14,208.78,343,228.6,338.77,235L259.58,118H190.05s23.07,6.17,34.18,22.83L325.06,292.06l20.1-47.65S369.8,184.44,362.34,197.73Z"/><path class="cls-2" d="M97.82,407.67l-13.29-21.6h-.14l.19,21.6H76.83v-33h9.1l13.25,21.55h.14l-.19-21.55h7.74v33Z"/><path class="cls-2" d="M157.44,391a18.27,18.27,0,0,1-1.36,7.16,16.3,16.3,0,0,1-3.75,5.55,16.75,16.75,0,0,1-5.71,3.57,20.09,20.09,0,0,1-7.19,1.26,19.84,19.84,0,0,1-7.16-1.26,16.76,16.76,0,0,1-5.69-3.57,16.3,16.3,0,0,1-3.75-5.55,18.27,18.27,0,0,1-1.36-7.16,18.06,18.06,0,0,1,1.36-7.16,15.62,15.62,0,0,1,3.75-5.43,16.79,16.79,0,0,1,5.69-3.45,20.5,20.5,0,0,1,7.16-1.22,20.75,20.75,0,0,1,7.19,1.22,16.79,16.79,0,0,1,5.71,3.45,15.62,15.62,0,0,1,3.75,5.43A18.06,18.06,0,0,1,157.44,391Zm-8.54,0a11.27,11.27,0,0,0-.7-4,9.62,9.62,0,0,0-1.93-3.19,8.88,8.88,0,0,0-3-2.1,9.36,9.36,0,0,0-3.85-.77,9.2,9.2,0,0,0-6.81,2.87,9,9,0,0,0-1.93,3.19,11.49,11.49,0,0,0-.68,4,11.7,11.7,0,0,0,.7,4.13,9.71,9.71,0,0,0,1.94,3.24,8.8,8.8,0,0,0,3,2.13,10,10,0,0,0,7.65,0,9.08,9.08,0,0,0,3-2.13,9.59,9.59,0,0,0,2-3.24A11.7,11.7,0,0,0,148.9,391Z"/><path class="cls-2" d="M189.72,407.67l-7.17-13.11h-2.72v13.11H172v-33h12.59a21.62,21.62,0,0,1,4.64.49,12.11,12.11,0,0,1,4.06,1.66,8.64,8.64,0,0,1,2.87,3.07,9.71,9.71,0,0,1,1.07,4.76,8.76,8.76,0,0,1-1.82,5.65,9.9,9.9,0,0,1-5,3.26L199,407.67Zm-.33-22.91a3.11,3.11,0,0,0-1.76-3,5.55,5.55,0,0,0-1.73-.53,12,12,0,0,0-1.86-.14h-4.26v7.69h3.8a12.74,12.74,0,0,0,2-.16,6.56,6.56,0,0,0,1.88-.58,3.65,3.65,0,0,0,1.38-1.21A3.6,3.6,0,0,0,189.39,384.76Z"/><path class="cls-2" d="M242.24,407.67l.18-23.37h-.14l-8.58,23.37h-5.6l-8.35-23.37h-.14l.19,23.37h-7.51v-33h11.35l7.52,21.18h.19l7.19-21.18h11.53v33Z"/><path class="cls-2" d="M288.56,407.67,286,401.18H273.21l-2.42,6.49h-8.68l13.85-33h7.75l13.71,33Zm-8.87-24.21-4.19,11.33h8.3Z"/><path class="cls-2" d="M330.49,407.67l-13.29-21.6h-.14l.18,21.6H309.5v-33h9.1l13.24,21.55H332l-.18-21.55h7.74v33Z"/><path class="cls-2" d="M386.51,391.06a16.32,16.32,0,0,1-1.61,7.49,15.07,15.07,0,0,1-4.24,5.17,17.64,17.64,0,0,1-6,3,24,24,0,0,1-6.72,1H355.68v-33h11.94a29.19,29.19,0,0,1,6.9.82,17.32,17.32,0,0,1,6.07,2.7,13.92,13.92,0,0,1,4.29,5.06A17,17,0,0,1,386.51,391.06Zm-8.3,0a10.39,10.39,0,0,0-.91-4.64,7.85,7.85,0,0,0-2.43-2.94,9.69,9.69,0,0,0-3.45-1.56,17,17,0,0,0-4-.47h-4v19.31h3.78a17,17,0,0,0,4.13-.49,9.56,9.56,0,0,0,3.49-1.61,8,8,0,0,0,2.43-3A10.48,10.48,0,0,0,378.21,391.06Z"/><path class="cls-2" d="M401.11,407.67v-33h8v33Z"/><path class="cls-2" d="M425.27,407.67v-33h22.21v6.72H433v6.25h13.71V394H433v6.86h15.35v6.81Z"/><path class="cls-3" d="M92.78,444.81a5.71,5.71,0,0,1-.69,2.92,5.38,5.38,0,0,1-1.82,1.91,8,8,0,0,1-2.59,1,14.11,14.11,0,0,1-3,.31H76.25V429.77h8.44a13,13,0,0,1,2.52.26,7.45,7.45,0,0,1,2.34.87,4.94,4.94,0,0,1,1.71,1.66,5,5,0,0,1,.66,2.67,4.46,4.46,0,0,1-1,2.92,5.35,5.35,0,0,1-2.52,1.66v.06a5.78,5.78,0,0,1,1.69.55,4.92,4.92,0,0,1,1.38,1,4.77,4.77,0,0,1,1.27,3.35ZM87,435.91a1.7,1.7,0,0,0-.82-1.57,4.84,4.84,0,0,0-2.44-.49H81.19v4.37H84a3.72,3.72,0,0,0,2.23-.58A2,2,0,0,0,87,435.91Zm.69,8.42a1.86,1.86,0,0,0-1-1.82A5.78,5.78,0,0,0,84,442H81.19v4.85h2.88a6.72,6.72,0,0,0,1.24-.11,3.65,3.65,0,0,0,1.17-.37,2.22,2.22,0,0,0,.85-.76A2.27,2.27,0,0,0,87.66,444.33Z"/><path class="cls-3" d="M120.09,446.48a7.63,7.63,0,0,1-1.84,2.69,8.32,8.32,0,0,1-2.89,1.75,11.6,11.6,0,0,1-7.54,0,8,8,0,0,1-2.84-1.75,7.67,7.67,0,0,1-1.8-2.69,9.34,9.34,0,0,1-.63-3.49V429.77h5.09v12.8a5.85,5.85,0,0,0,.23,1.64,4.26,4.26,0,0,0,.69,1.4,3.22,3.22,0,0,0,1.23,1,4.88,4.88,0,0,0,3.68,0,3.34,3.34,0,0,0,1.24-1,3.9,3.9,0,0,0,.69-1.4,6.25,6.25,0,0,0,.21-1.64v-12.8h5.13V443A9.15,9.15,0,0,1,120.09,446.48Z"/><path class="cls-3" d="M142.67,435.29a4.66,4.66,0,0,0-1.73-1.34,4.84,4.84,0,0,0-2.05-.49,6.06,6.06,0,0,0-1,.09,2.69,2.69,0,0,0-1,.34,2.32,2.32,0,0,0-.7.66,1.77,1.77,0,0,0-.29,1,1.63,1.63,0,0,0,.23.89,2,2,0,0,0,.66.63,5.82,5.82,0,0,0,1,.5c.4.15.85.3,1.35.46.72.24,1.47.51,2.25.8a8.34,8.34,0,0,1,2.12,1.15,6,6,0,0,1,1.59,1.78,5.15,5.15,0,0,1,.63,2.65,6.89,6.89,0,0,1-.67,3.16,6.34,6.34,0,0,1-1.82,2.21,7.71,7.71,0,0,1-2.6,1.28,11,11,0,0,1-3,.42,12.45,12.45,0,0,1-4.4-.79,9.33,9.33,0,0,1-3.54-2.26l3.36-3.42a6.2,6.2,0,0,0,2,1.61,5.55,5.55,0,0,0,2.53.64,5.1,5.1,0,0,0,1.11-.12,2.74,2.74,0,0,0,.94-.39,2,2,0,0,0,.65-.72,2.27,2.27,0,0,0,.24-1.08,1.71,1.71,0,0,0-.3-1,2.94,2.94,0,0,0-.86-.76,6.78,6.78,0,0,0-1.37-.63c-.55-.19-1.18-.39-1.88-.61a18.64,18.64,0,0,1-2-.78,6.92,6.92,0,0,1-1.74-1.15,5.48,5.48,0,0,1-1.22-1.71,5.82,5.82,0,0,1-.47-2.45,6,6,0,0,1,.72-3,6.26,6.26,0,0,1,1.89-2.07,8.15,8.15,0,0,1,2.63-1.18,12,12,0,0,1,3-.38,11,11,0,0,1,3.67.66,9.44,9.44,0,0,1,3.28,1.95Z"/><path class="cls-3" d="M155.76,451V429.77h5.15V451Z"/><path class="cls-3" d="M185.36,451l-8.54-13.87h-.09l.12,13.87h-5V429.77h5.85l8.5,13.84h.09l-.12-13.84h5V451Z"/><path class="cls-3" d="M202.13,451V429.77h14.26v4.32h-9.32v4h8.81v4.11h-8.81v4.4h9.86V451Z"/><path class="cls-3" d="M238.11,435.29a4.62,4.62,0,0,0-1.72-1.34,4.84,4.84,0,0,0-2-.49,6.18,6.18,0,0,0-1,.09,2.64,2.64,0,0,0-.94.34,2.32,2.32,0,0,0-.7.66,1.77,1.77,0,0,0-.29,1,1.63,1.63,0,0,0,.23.89,2,2,0,0,0,.66.63,5.82,5.82,0,0,0,1,.5c.4.15.85.3,1.35.46.72.24,1.47.51,2.24.8A8.4,8.4,0,0,1,239,440a6,6,0,0,1,1.59,1.78,5.15,5.15,0,0,1,.63,2.65,6.89,6.89,0,0,1-.68,3.16,6.21,6.21,0,0,1-1.81,2.21,7.8,7.8,0,0,1-2.6,1.28,11,11,0,0,1-3,.42,12.41,12.41,0,0,1-4.4-.79,9.33,9.33,0,0,1-3.54-2.26l3.36-3.42a6.1,6.1,0,0,0,2.05,1.61,5.55,5.55,0,0,0,2.53.64,5.1,5.1,0,0,0,1.11-.12,2.74,2.74,0,0,0,.94-.39,2,2,0,0,0,.65-.72,2.27,2.27,0,0,0,.24-1.08,1.71,1.71,0,0,0-.3-1,2.94,2.94,0,0,0-.86-.76,6.89,6.89,0,0,0-1.38-.63c-.55-.19-1.17-.39-1.87-.61a17.84,17.84,0,0,1-2-.78,6.92,6.92,0,0,1-1.74-1.15,5.35,5.35,0,0,1-1.23-1.71,5.82,5.82,0,0,1-.46-2.45,6,6,0,0,1,.72-3,6.26,6.26,0,0,1,1.89-2.07,8,8,0,0,1,2.63-1.18,12,12,0,0,1,3-.38,11,11,0,0,1,3.67.66,9.44,9.44,0,0,1,3.28,1.95Z"/><path class="cls-3" d="M262.41,435.29a4.71,4.71,0,0,0-1.72-1.34,4.88,4.88,0,0,0-2.06-.49,6.06,6.06,0,0,0-1,.09,2.64,2.64,0,0,0-.94.34,2.35,2.35,0,0,0-.71.66,1.77,1.77,0,0,0-.28,1,1.63,1.63,0,0,0,.22.89,2,2,0,0,0,.66.63,5.94,5.94,0,0,0,1,.5c.39.15.84.3,1.34.46.72.24,1.47.51,2.25.8a8.4,8.4,0,0,1,2.13,1.15,5.88,5.88,0,0,1,1.58,1.78,5.15,5.15,0,0,1,.63,2.65,6.89,6.89,0,0,1-.67,3.16,6.32,6.32,0,0,1-1.81,2.21,7.76,7.76,0,0,1-2.61,1.28,11,11,0,0,1-3,.42,12.51,12.51,0,0,1-4.41-.79,9.29,9.29,0,0,1-3.53-2.26l3.35-3.42a6.2,6.2,0,0,0,2.05,1.61,5.59,5.59,0,0,0,2.54.64,5.08,5.08,0,0,0,1.1-.12,2.8,2.8,0,0,0,.95-.39,1.94,1.94,0,0,0,.64-.72,2.27,2.27,0,0,0,.24-1.08,1.71,1.71,0,0,0-.3-1,2.9,2.9,0,0,0-.85-.76,6.89,6.89,0,0,0-1.38-.63c-.55-.19-1.17-.39-1.87-.61a18,18,0,0,1-2-.78,7,7,0,0,1-1.73-1.15,5.35,5.35,0,0,1-1.23-1.71,5.82,5.82,0,0,1-.47-2.45,6,6,0,0,1,.72-3,6.26,6.26,0,0,1,1.89-2.07,8.11,8.11,0,0,1,2.64-1.18,11.9,11.9,0,0,1,3-.38,11,11,0,0,1,3.67.66,9.44,9.44,0,0,1,3.28,1.95Z"/><path class="cls-3" d="M300.79,435.29a4.66,4.66,0,0,0-1.73-1.34,4.84,4.84,0,0,0-2.05-.49,6.06,6.06,0,0,0-1,.09,2.69,2.69,0,0,0-1,.34,2.32,2.32,0,0,0-.7.66,1.77,1.77,0,0,0-.28,1,1.63,1.63,0,0,0,.22.89,2,2,0,0,0,.66.63,5.82,5.82,0,0,0,1,.5c.4.15.85.3,1.35.46.72.24,1.47.51,2.25.8a8.17,8.17,0,0,1,2.12,1.15,6,6,0,0,1,1.59,1.78,5.15,5.15,0,0,1,.63,2.65,6.89,6.89,0,0,1-.67,3.16,6.43,6.43,0,0,1-1.81,2.21,7.76,7.76,0,0,1-2.61,1.28,11,11,0,0,1-3,.42,12.49,12.49,0,0,1-4.4-.79,9.33,9.33,0,0,1-3.54-2.26l3.36-3.42a6.2,6.2,0,0,0,2.05,1.61,5.55,5.55,0,0,0,2.53.64,5.1,5.1,0,0,0,1.11-.12,2.66,2.66,0,0,0,.94-.39,1.88,1.88,0,0,0,.65-.72,2.27,2.27,0,0,0,.24-1.08,1.71,1.71,0,0,0-.3-1,2.9,2.9,0,0,0-.85-.76,6.89,6.89,0,0,0-1.38-.63c-.55-.19-1.18-.39-1.88-.61a18.64,18.64,0,0,1-2-.78,6.69,6.69,0,0,1-1.73-1.15,5.35,5.35,0,0,1-1.23-1.71,5.82,5.82,0,0,1-.47-2.45,6,6,0,0,1,.72-3,6.26,6.26,0,0,1,1.89-2.07,8.11,8.11,0,0,1,2.64-1.18,11.84,11.84,0,0,1,3-.38,11,11,0,0,1,3.67.66,9.44,9.44,0,0,1,3.28,1.95Z"/><path class="cls-3" d="M329.07,450.61a11.38,11.38,0,0,1-4.77.94,12.46,12.46,0,0,1-4.54-.81,10.59,10.59,0,0,1-3.61-2.29,10.73,10.73,0,0,1-2.39-3.55,12.42,12.42,0,0,1,0-9.16,10.29,10.29,0,0,1,2.44-3.53,11,11,0,0,1,3.66-2.23,13.2,13.2,0,0,1,8.94,0,8.45,8.45,0,0,1,3.52,2.32l-3.47,3.48a4.31,4.31,0,0,0-1.89-1.47,6.27,6.27,0,0,0-2.4-.48,6.05,6.05,0,0,0-2.47.49,5.8,5.8,0,0,0-1.93,1.37,6.1,6.1,0,0,0-1.26,2.05,7.23,7.23,0,0,0-.45,2.59,7.46,7.46,0,0,0,.45,2.64,6.21,6.21,0,0,0,1.24,2.05,5.61,5.61,0,0,0,1.91,1.33,6,6,0,0,0,2.42.48,5.65,5.65,0,0,0,2.67-.6,5.18,5.18,0,0,0,1.83-1.56l3.56,3.36A10.15,10.15,0,0,1,329.07,450.61Z"/><path class="cls-3" d="M354.71,451v-8.86h-8.27V451h-5.12V429.77h5.12v8h8.27v-8h5.12V451Z"/><path class="cls-3" d="M392.91,440.29a11.82,11.82,0,0,1-.87,4.6,10.43,10.43,0,0,1-2.41,3.56,10.56,10.56,0,0,1-3.67,2.29,12.89,12.89,0,0,1-4.62.81,12.69,12.69,0,0,1-4.59-.81,10.61,10.61,0,0,1-3.66-2.29,10.43,10.43,0,0,1-2.41-3.56,11.82,11.82,0,0,1-.87-4.6,11.68,11.68,0,0,1,.87-4.6,10.05,10.05,0,0,1,2.41-3.49,10.76,10.76,0,0,1,3.66-2.22,13.12,13.12,0,0,1,4.59-.77A13.33,13.33,0,0,1,386,430a10.71,10.71,0,0,1,3.67,2.22,10.05,10.05,0,0,1,2.41,3.49A11.68,11.68,0,0,1,392.91,440.29Zm-5.48,0a7.29,7.29,0,0,0-.45-2.58,6.13,6.13,0,0,0-1.25-2,5.71,5.71,0,0,0-1.91-1.35,6.1,6.1,0,0,0-2.48-.49,5.87,5.87,0,0,0-4.37,1.84,5.81,5.81,0,0,0-1.24,2,7.91,7.91,0,0,0,0,5.23A6.28,6.28,0,0,0,377,445a5.58,5.58,0,0,0,1.9,1.37,6.4,6.4,0,0,0,4.91,0,5.86,5.86,0,0,0,1.92-1.37,6.13,6.13,0,0,0,1.26-2.08A7.56,7.56,0,0,0,387.43,440.29Z"/><path class="cls-3" d="M425,440.29a12,12,0,0,1-.87,4.6,10.45,10.45,0,0,1-6.09,5.85,13.5,13.5,0,0,1-9.21,0,10.57,10.57,0,0,1-3.65-2.29,10.29,10.29,0,0,1-2.41-3.56,11.82,11.82,0,0,1-.87-4.6,11.68,11.68,0,0,1,.87-4.6,9.92,9.92,0,0,1,2.41-3.49,10.71,10.71,0,0,1,3.65-2.22,14.16,14.16,0,0,1,9.21,0,10.61,10.61,0,0,1,3.67,2.22,10.07,10.07,0,0,1,2.42,3.49A11.86,11.86,0,0,1,425,440.29Zm-5.49,0a7.29,7.29,0,0,0-.45-2.58,6.11,6.11,0,0,0-1.24-2,5.75,5.75,0,0,0-1.92-1.35,6.05,6.05,0,0,0-2.47-.49,5.83,5.83,0,0,0-4.37,1.84,5.83,5.83,0,0,0-1.25,2,8,8,0,0,0,0,5.23,6.25,6.25,0,0,0,1.24,2.08,5.68,5.68,0,0,0,1.9,1.37,6.42,6.42,0,0,0,4.92,0,5.86,5.86,0,0,0,1.92-1.37,6.28,6.28,0,0,0,1.25-2.08A7.56,7.56,0,0,0,419.51,440.29Z"/><path class="cls-3" d="M435,451V429.77h5.15v16.75h8.21V451Z"/><path class="cls-2" d="M227.66,67.29V54.38l-3.28,2.53L222.22,54,228,49.72h3.79V67.29Z"/><path class="cls-2" d="M258.71,62.27a5,5,0,0,1-2,4.14,6.21,6.21,0,0,1-2.1,1,9.32,9.32,0,0,1-5,0,6.28,6.28,0,0,1-2.1-1,4.89,4.89,0,0,1-2-4.12,4.22,4.22,0,0,1,.25-1.48,4,4,0,0,1,.68-1.21,4.41,4.41,0,0,1,1-.92,4.35,4.35,0,0,1,1.21-.58v0a4.46,4.46,0,0,1-1.91-1.38,3.77,3.77,0,0,1-.77-2.42,4.55,4.55,0,0,1,1.84-3.74,5.86,5.86,0,0,1,2-1,8.15,8.15,0,0,1,2.33-.33,8.78,8.78,0,0,1,2.32.31,5.89,5.89,0,0,1,1.95.94A4.69,4.69,0,0,1,257.75,52a4.37,4.37,0,0,1,.51,2.14,4,4,0,0,1-.74,2.46A3.89,3.89,0,0,1,255.58,58v.08a4.33,4.33,0,0,1,1.23.58,4.32,4.32,0,0,1,1.9,3.58Zm-4.15-.14a2.28,2.28,0,0,0-.68-1.7,2.35,2.35,0,0,0-1.75-.69,2.43,2.43,0,0,0-1.77.67,2.3,2.3,0,0,0-.69,1.72,2.21,2.21,0,0,0,.69,1.7,2.49,2.49,0,0,0,1.77.63,2.45,2.45,0,0,0,1.76-.63A2.23,2.23,0,0,0,254.56,62.13Zm-.32-7.65a1.88,1.88,0,0,0-.62-1.44,2.12,2.12,0,0,0-1.49-.57,2,2,0,0,0-1.51.57,2,2,0,0,0-.57,1.44,2.11,2.11,0,0,0,.56,1.47,2,2,0,0,0,1.52.62,2,2,0,0,0,1.52-.62A2.1,2.1,0,0,0,254.24,54.48Z"/><path class="cls-2" d="M275.19,67.29h-4.84l7.12-14h-8.31V49.72h12.76V53Z"/><path class="cls-2" d="M298.1,67.29V54.38l-3.28,2.53L292.66,54l5.78-4.24h3.8V67.29Z"/></g></g></svg>